<svg version="1.2" xmlns="http://www.w3.org/2000/svg" viewBox="0 0 300 300" width="300" height="300"><style>.a{fill:#edc53f}.b{opacity:.9;fill:#fff}</style><path class="a" d="m150 299.5c-82.7 0-149.5-66.8-149.5-149.5 0-82.7 66.8-149.5 149.5-149.5 82.7 0 149.5 66.8 149.5 149.5 0 82.7-66.8 149.5-149.5 149.5z"/><path fill-rule="evenodd" class="b" d="m90.5 180.2h-43.6v-9.9c7.8-7.9 30.4-25.4 28.1-35.6-3.1-9.6-16.5-3.1-18.5 1.4l-9.6-7.4c9.9-15.3 40.6-13.5 41.4 6.2 0.2 15.5-15.3 25.1-24.3 33.6v0.6h26.5zm55.2-30c0.1 17.9-5.1 31.4-23 31.6-19.1-0.1-23.6-13.8-23.5-31.5-0.1-17.8 4.7-31.6 23.5-31.6 18 0 22.9 13.8 23 31.5zm-33.7 0.1c0.1 7 0.6 20.6 10.4 20.7 9.7 0.1 10.6-14.4 10.6-20.8-0.1-7-0.5-20.5-10.4-20.6-10.1-0.2-10.6 14-10.6 20.7zm119.7-31.6c8.5 0 20.5 3.7 20.5 14.8 0 8.7-3.7 10.7-10.7 14.5 7.7 4.6 12.6 8.1 12.7 17.2-0.1 12-11.7 16.3-22.5 16.4-11.4-0.1-22.6-4.1-22.7-16.5 0.1-9 5.4-14 11.1-16.9-6.5-4-9.6-6-9.4-14.8-0.2-10.9 11.8-14.7 21-14.7zm-10.5 45.3c-0.1 5.7 4.7 7.7 10.4 7.7 5.5 0 9.7-2.3 9.7-7.2 0.1-8.2-9.7-11.9-9.7-11.9 0 0-10.5 3.7-10.4 11.4zm10.4-35c-4.8 0-9.1 1.1-9.2 5.7 0.1 5.4 9.1 9.1 9.1 9.1 0 0 8.4-3.7 8.5-9.5-0.2-4.2-3.8-5.3-8.4-5.3zm-29.4 41.1h-7.8v10.1h-11.5v-10.1h-30v-11.1l29.3-38.9h12.2v39.8h7.8zm-19.3-33.7l-18 23.5h18z"/></svg>